<?xml version="1.0" encoding="UTF-8"?>
<svg width="14px" height="34px" viewBox="0 0 14 34" version="1.1" xmlns="http://www.w3.org/2000/svg" xmlns:xlink="http://www.w3.org/1999/xlink">
    <!-- Generator: Sketch 52.6 (67491) - http://www.bohemiancoding.com/sketch -->
    <title>Path</title>
    <desc>Created with Sketch.</desc>
    <g id="Symbols" stroke="none" stroke-width="1" fill="none" fill-rule="evenodd">
        <g id="Benzer-Ürünler" transform="translate(-1158.000000, -240.000000)" fill="#666666">
            <g id="next" transform="translate(1158.000000, 240.000000)">
                <path d="M13.2906563,15.757168 L1.68125692,0.282806324 C1.30418182,-0.0942687747 0.699438735,-0.0942687747 0.322363636,0.282806324 C-0.0547114625,0.659881423 -0.0547114625,1.26462451 0.322363636,1.6416996 L11.6543794,16.9737154 L0.322363636,32.3057312 C-0.0547114625,32.6828063 -0.0547114625,33.2875494 0.322363636,33.6646245 C0.507343874,33.8496047 0.756355731,33.9492095 0.998252964,33.9492095 C1.2401502,33.9492095 1.48916206,33.8567194 1.67414229,33.6646245 L13.2835417,18.1902628 C13.5469488,17.8391631 13.6904093,17.4126334 13.6927194,16.9737154 L13.6927194,16.9737154 C13.6950274,16.5351925 13.5538264,16.1079517 13.2906563,15.757168 Z" id="Path"></path>
            </g>
        </g>
    </g>
</svg>